HIERARCHY
ROOT Hips
{
	OFFSET 0.000000 0.000000 0.000000 
	CHANNELS 6 Xposition Yposition Zposition Zrotation Yrotation Xrotation
	JOINT LeftUpLeg
	{
		OFFSET 1.363060 -1.794630 0.839290 
		CHANNELS 3 Zrotation Yrotation Xrotation
		JOINT LeftLeg
		{
			OFFSET 2.448110 -6.726130 0.000000 
			CHANNELS 3 Zrotation Yrotation Xrotation
			JOINT LeftFoot
			{
				OFFSET 2.562200 -7.039590 0.000000 
				CHANNELS 3 Zrotation Yrotation Xrotation
				JOINT LeftToeBase
				{
					OFFSET 0.157640 -0.433110 2.322550 
					CHANNELS 3 Zrotation Yrotation Xrotation
					End Site
					{
						OFFSET 0.000000 0.000000 0.000000 
					}
				}
			}
		}
	}
	JOINT RightUpLeg
	{
		OFFSET -1.305520 -1.794630 0.839290 
		CHANNELS 3 Zrotation Yrotation Xrotation
		JOINT RightLeg
		{
			OFFSET -2.542530 -6.985550 0.000000 
			CHANNELS 3 Zrotation Yrotation Xrotation
			JOINT RightFoot
			{
				OFFSET -2.568260 -7.056230 0.000000 
				CHANNELS 3 Zrotation Yrotation Xrotation
				JOINT RightToeBase
				{
					OFFSET -0.164730 -0.452590 2.363150 
					CHANNELS 3 Zrotation Yrotation Xrotation
					End Site
					{
						OFFSET 0.000000 0.000000 0.000000 
					}
				}
			}
		}
	}
	JOINT Spine
	{
		OFFSET 0.028270 2.035590 -0.193380 
		CHANNELS 3 Zrotation Yrotation Xrotation
		JOINT Spine1
		{
			OFFSET 0.056720 2.048850 -0.042750 
			CHANNELS 3 Zrotation Yrotation Xrotation
			JOINT Neck1
			{
				OFFSET -0.054170 1.746240 0.172020 
				CHANNELS 3 Zrotation Yrotation Xrotation
				JOINT Head
				{
					OFFSET 0.104070 1.761360 -0.123970 
					CHANNELS 3 Zrotation Yrotation Xrotation
					End Site
					{
						OFFSET 0.000000 0.000000 0.000000 
					}
				}
			}
			JOINT LeftArm
			{
				OFFSET 3.362410 1.200890 -0.311210 
				CHANNELS 3 Zrotation Yrotation Xrotation
				JOINT LeftForeArm
				{
					OFFSET 4.983000 -0.000000 -0.000000 
					CHANNELS 3 Zrotation Yrotation Xrotation
					JOINT LeftHand
					{
						OFFSET 3.483560 -0.000000 -0.000000 
						CHANNELS 3 Zrotation Yrotation Xrotation
						JOINT LeftHandIndex1
						{
							OFFSET 0.715260 -0.000000 -0.000000 
							CHANNELS 3 Zrotation Yrotation Xrotation
							End Site
							{
								OFFSET 0.000000 0.000000 0.000000 
							}
						}
					}
				}
			}
			JOINT RightArm
			{
				OFFSET -3.136600 1.374050 -0.404650 
				CHANNELS 3 Zrotation Yrotation Xrotation
				JOINT RightForeArm
				{
					OFFSET -5.241900 -0.000000 -0.000000 
					CHANNELS 3 Zrotation Yrotation Xrotation
					JOINT RightHand
					{
						OFFSET -3.444170 -0.000000 -0.000000 
						CHANNELS 3 Zrotation Yrotation Xrotation
						JOINT RightHandIndex1
						{
							OFFSET -0.622530 -0.000000 -0.000000 
							CHANNELS 3 Zrotation Yrotation Xrotation
							End Site
							{
								OFFSET 0.000000 0.000000 0.000000 
							}
						}
					}
				}
			}
		}
	}
}
MOTION
Frames: 16
Frame Time: 0.041667
-35.921047 16.931016 -0.419251 102.609480 82.687118 103.288401 -22.746399 -3.880998 -18.697277 -0.068004 13.706650 33.976620 0.379514 2.375205 -0.654927 0.052700 1.481900 4.075700 1.327072 -9.040909 -2.104712 -8.702404 -18.264385 56.699413 -40.764867 15.214397 174.744373 -0.697700 -5.339400 14.879100 -0.518748 -0.047818 -2.929380 -3.121690 0.306827 2.727762 7.606439 -0.900980 1.917412 1.860700 -0.005100 9.081200 -68.267958 7.881553 60.277759 69.192646 -57.183856 -46.673099 -2.250957 0.220390 -20.482782 -7.125000 0.000000 0.000000 82.527723 -24.098893 49.710893 -106.215756 56.341245 -70.817907 2.517018 0.330836 -18.849057 7.125000 0.000000 0.000000 
-35.451341 16.939971 -0.452560 100.191221 81.812508 100.719076 -24.314136 -3.575420 -16.848570 -0.100516 13.729914 33.952528 0.520175 2.052971 -2.631807 0.006200 0.509800 1.400800 0.629247 -6.952199 -4.974149 -7.882518 -17.610284 53.747623 -40.030556 5.869540 173.972394 -0.025900 1.038900 -2.855900 -0.538011 -0.344416 -2.912307 -2.812692 0.130329 2.592177 7.690399 -0.586439 1.834874 1.889400 0.148500 8.937000 -69.452185 5.294159 58.655418 70.164752 -57.256042 -47.540003 -2.246042 0.271964 -19.290779 -7.125000 0.000000 0.000000 82.570296 -25.344461 48.548004 -101.725552 57.402458 -66.753805 2.560541 0.401569 -18.323292 7.125000 0.000000 0.000000 
-35.001403 16.967819 -0.462061 99.775246 80.488042 99.793021 -26.225744 -2.962943 -14.756926 -0.141598 13.723010 33.818164 0.998816 0.836145 -4.315238 0.023500 0.988700 2.717800 -0.553601 -5.648621 -7.424167 -7.240031 -17.019258 51.331252 -39.891999 2.029870 174.453185 -1.072600 -6.583600 18.487600 -0.565490 -0.800497 -2.861109 -2.292858 -0.126597 2.495303 7.816798 -0.305723 1.684715 1.942400 0.289100 8.792300 -70.441497 2.278144 56.902290 71.572297 -57.380910 -48.808209 -2.245347 0.358410 -19.013535 -7.125000 0.000000 0.000000 82.496030 -26.603946 47.654566 -97.906021 58.216749 -63.392771 2.574862 0.365918 -18.613838 7.125000 0.000000 0.000000 
-34.592854 16.989333 -0.432028 103.993732 79.444131 103.683218 -27.312286 -2.796001 -13.124544 -0.027633 13.862641 34.196298 1.515213 -0.530620 -5.508119 0.044700 1.364000 3.751000 -1.079612 -5.709921 -10.883628 -6.775565 -16.508034 49.480972 -39.868324 0.743054 174.687782 -0.621200 -5.043700 14.033200 -0.478188 -1.679578 -2.957892 -1.222834 -0.602793 1.605724 7.988526 0.040445 1.556626 2.029000 0.444400 8.769700 -71.694383 -0.387953 55.061813 73.527981 -57.517616 -50.534666 -2.212302 0.451848 -18.240388 -7.125000 0.000000 0.000000 82.271434 -28.296624 46.954349 -94.768453 58.715730 -60.788070 2.529995 0.307219 -19.110062 7.125000 0.000000 0.000000 
-34.110590 17.019475 -0.424165 106.170763 79.091177 105.858445 -27.574671 -2.508032 -11.470736 0.024595 13.864088 34.239340 1.906765 -1.495720 -6.621559 0.058400 1.559300 4.289200 -0.879703 -5.075516 -13.947405 -6.498731 -16.275354 48.503971 -39.855798 0.602054 174.409725 -0.759600 -5.566100 15.530500 -0.403630 -2.159515 -2.949211 -0.555219 -0.913317 1.679891 8.144219 0.319585 1.455229 2.156700 0.583500 8.657700 -73.017769 -3.262126 53.421101 75.321231 -57.686464 -52.150918 -2.186684 0.543512 -16.169208 -7.125000 0.000000 0.000000 82.112256 -30.246430 46.185540 -93.218484 59.015139 -59.568038 2.488384 0.268753 -19.831593 7.125000 0.000000 0.000000 
-33.600914 17.077573 -0.431155 109.435517 78.845376 109.052894 -27.665118 -2.235524 -9.142015 -0.233073 13.444934 32.995683 2.321018 -2.612835 -6.792630 0.064400 1.637000 4.503500 -0.581715 -4.867125 -16.480750 -6.551489 -16.301469 48.656084 -39.846901 0.584989 174.233164 -0.556500 -4.778400 13.277700 -0.323209 -2.599536 -2.929461 -0.108233 -1.188661 1.821113 8.009084 0.504510 1.382610 2.021400 0.636200 8.605700 -74.500056 -6.149755 51.961082 77.221944 -57.845660 -53.860049 -2.166932 0.637151 -14.274852 -7.125000 0.000000 0.000000 82.028601 -32.648640 45.395481 -93.167529 59.086367 -59.702623 2.449188 0.274965 -20.548424 7.125000 0.000000 0.000000 
-33.137215 17.122130 -0.453433 102.325304 79.541998 102.678388 -27.243444 -0.605740 -8.580988 -0.463759 12.978726 31.776715 2.227606 -2.174283 -7.259765 0.020800 0.931300 2.559800 -0.400705 -1.661778 -20.050435 -6.307145 -16.278031 48.004116 -39.846555 -0.009787 174.713709 -0.418600 -4.152800 11.507000 -0.298619 -2.125824 -3.001340 0.244262 -1.011868 1.668459 7.976214 0.673967 1.497960 2.020300 0.701000 8.832700 -76.178756 -8.791731 50.706343 79.536313 -57.995912 -55.921302 -2.154652 0.718946 -12.970862 -7.125000 0.000000 0.000000 81.896224 -35.164023 44.764205 -93.947563 58.992553 -60.589025 2.404173 0.356865 -21.249674 7.125000 0.000000 0.000000 
-32.628632 17.203491 -0.448737 105.744918 79.807061 106.130511 -26.599988 -0.356370 -6.266063 -0.752559 12.424776 30.263271 2.383654 -2.548018 -7.233604 0.010800 0.669500 1.839900 0.383922 -1.556129 -22.708065 -6.612767 -16.551302 49.082925 -39.842691 -0.355478 174.919349 -0.634300 -5.095600 14.181400 -0.181485 -2.526672 -3.033354 0.784455 -1.265750 1.539419 7.851347 1.020080 1.547170 1.934300 0.824400 8.866400 -77.805028 -10.906397 49.500618 82.407145 -58.214281 -58.461817 -2.145751 0.807566 -11.813998 -7.125000 0.000000 0.000000 81.555599 -37.625844 44.609904 -94.553899 58.932012 -61.340933 2.352934 0.479697 -21.515237 7.125000 0.000000 0.000000 
-32.099408 17.297628 -0.440437 110.702334 79.467331 110.994288 -26.484390 -0.667507 -3.289614 -1.139805 11.719943 28.299414 2.434241 -2.756167 -6.816550 0.002600 0.330300 0.907600 0.851906 -2.083277 -24.985251 -7.166083 -16.914859 50.869615 -39.841090 0.516482 175.106135 -0.844800 -5.862500 16.385900 -0.052049 -3.215282 -3.037460 1.449984 -1.689087 1.658898 7.663795 1.434304 1.643582 1.723200 0.975900 8.858700 -79.172318 -12.883969 48.375259 85.075034 -58.387008 -60.814610 -2.149945 0.887605 -10.869640 -7.125000 0.000000 0.000000 80.797391 -39.696262 44.944966 -94.323578 59.014099 -61.320419 2.300765 0.541454 -21.109756 7.125000 0.000000 0.000000 
-31.578593 17.384886 -0.443495 111.397736 79.041060 112.018951 -26.989901 -1.100541 -0.616220 -1.595864 10.893650 26.000988 2.077384 -1.874856 -6.318439 0.006700 -0.529000 -1.453600 0.831900 -1.484153 -27.545800 -7.718859 -17.280932 52.618545 -39.816601 -0.001370 174.144518 -0.569800 -4.834100 13.436100 0.028699 -3.706550 -3.067805 2.103439 -2.006130 1.782910 7.683681 1.902422 1.632803 1.748400 1.183400 8.712900 -80.408580 -14.532846 47.372622 87.911087 -58.534347 -63.299029 -2.167470 0.943788 -10.454565 -7.125000 0.000000 0.000000 79.791327 -41.625338 45.790898 -94.653464 59.017499 -61.769303 2.250567 0.615038 -21.706137 7.125000 0.000000 0.000000 
-31.044891 17.489944 -0.456382 112.337498 78.694678 113.255147 -27.638733 -2.041391 2.478279 -2.062407 9.963903 23.466900 1.568405 -0.594635 -5.634471 0.031000 -1.135900 -3.122900 0.865167 -0.651637 -29.747888 -8.502382 -17.806710 55.119624 -39.793928 -0.043896 173.318032 -0.409700 -4.108800 11.382900 0.093160 -4.183789 -3.134463 2.487254 -2.276396 1.748774 7.624986 2.268397 1.825717 1.667200 1.344000 8.831300 -81.714981 -15.378135 46.358375 91.811376 -58.669265 -66.653155 -2.179635 1.014385 -10.121661 -7.125000 0.000000 0.000000 78.840337 -43.669256 46.454121 -94.659513 59.050843 -61.843203 2.204758 0.573878 -22.247101 7.125000 0.000000 0.000000 
-30.504856 17.603739 -0.484776 114.328577 78.351095 115.579820 -28.258295 -3.147710 5.560109 -2.454305 9.055755 21.050520 1.142729 0.462007 -4.714812 0.050700 -1.452600 -3.995200 0.546458 -1.113781 -31.935803 -9.715033 -18.363117 58.707272 -39.788372 0.238595 173.193309 -0.487400 -4.476700 12.421900 0.169117 -4.845057 -3.199161 2.672197 -2.634550 1.847800 7.500388 2.706570 2.121087 1.535600 1.537000 9.036300 -82.888060 -16.006318 45.349594 95.546129 -58.689757 -69.828591 -2.203589 1.091642 -9.962224 -7.125000 0.000000 0.000000 77.372868 -45.497411 47.715652 -95.165487 59.023898 -62.392149 2.152014 0.601127 -23.072719 7.125000 0.000000 0.000000 
-29.947456 17.733697 -0.485322 115.451543 78.163276 116.734189 -28.350043 -3.041690 8.327251 -2.706168 8.169328 18.868968 0.903084 1.020590 -3.198555 0.121200 -2.244400 -6.181600 0.893820 -0.559597 -33.151433 -10.918745 -19.029812 62.437145 -39.809389 1.508162 173.038377 -0.721400 -5.427300 15.131400 0.266153 -5.292404 -3.248412 3.176578 -2.916640 1.822859 7.387115 3.115045 2.355565 1.370100 1.711100 9.204500 -83.698166 -16.522632 44.889571 99.024473 -58.550441 -72.698883 -2.239818 1.149327 -10.299137 -7.125000 0.000000 0.000000 75.913197 -47.235195 49.131653 -95.547822 58.973776 -62.858355 2.100793 0.607347 -23.472988 7.125000 0.000000 0.000000 
-29.360789 17.876979 -0.519941 114.120695 78.453178 115.334886 -28.311071 -2.050053 10.827606 -2.863079 7.297981 16.816246 0.592276 1.832457 -1.237283 0.241800 -3.164700 -8.737700 1.260047 0.488707 -33.780943 -12.456758 -19.802466 67.117683 -39.807311 1.862759 172.419502 -0.548600 -4.744900 13.182500 0.308955 -5.463729 -3.247413 3.188050 -3.036947 2.017935 7.276664 3.514666 2.567643 1.242300 1.895000 9.321400 -84.170677 -16.803054 44.595086 102.655449 -58.305903 -75.668254 -2.286474 1.173474 -10.995049 -7.125000 0.000000 0.000000 74.406136 -48.794493 50.698794 -96.005879 58.969030 -63.316549 2.073431 0.602347 -23.794683 7.125000 0.000000 0.000000 
-28.809614 18.018513 -0.538943 115.721455 78.235807 117.047438 -28.124080 -1.690491 12.940276 -2.970186 6.603109 15.209105 0.372930 2.502199 1.473357 0.303700 -3.543500 -9.795700 1.553335 0.677394 -34.729056 -14.076587 -20.363974 71.871724 -39.834741 3.009187 171.705123 -0.448700 -4.297500 11.915000 0.409286 -6.057322 -3.310212 3.540156 -3.377505 1.987846 7.203395 3.996665 2.862509 1.121700 2.118500 9.566600 -84.513537 -16.872217 44.345855 106.371138 -57.858658 -78.679490 -2.332490 1.193563 -11.920534 -7.125000 0.000000 0.000000 72.663700 -50.307579 52.574414 -96.898780 58.835198 -64.229930 2.032680 0.611396 -24.498811 7.125000 0.000000 0.000000 
-28.255163 18.155351 -0.552158 115.568178 78.173020 117.033192 -27.752532 -0.696926 14.535740 -3.007232 6.001676 13.869952 0.214927 3.191684 4.711647 0.375800 -3.937500 -10.900800 1.925084 1.309778 -35.491391 -16.324862 -21.087806 78.798390 -43.208417 32.609482 150.820359 -0.386400 -3.991800 11.053500 0.512317 -6.496968 -3.381501 4.068755 -3.650313 1.931624 7.133993 4.517002 3.213767 1.013600 2.355000 9.900900 -84.774210 -16.700940 44.272081 110.330158 -57.180410 -81.854883 -2.382537 1.193164 -13.201608 -7.125000 0.000000 0.000000 70.711014 -51.812433 54.245039 -97.818036 58.689734 -65.227118 1.959245 0.634327 -24.159166 7.125000 0.000000 0.000000 
